<svg fill="none" height="30" viewBox="0 0 30 30" width="30" xmlns="http://www.w3.org/2000/svg" xmlns:xlink="http://www.w3.org/1999/xlink"><clipPath id="a"><path d="m0 0h30v30h-30z"/></clipPath><g clip-path="url(#a)" fill="#3f3f46"><path clip-rule="evenodd" d="m15.0003.625c-3.5609.001848-7.00514 1.26307-9.71671 3.55815-2.71158 2.29508-4.513711 5.47436-5.084159 8.96935-.570449 3.495.127977 7.0778 1.970409 10.1077 1.84243 3.03 4.70871 5.3095 8.08636 6.431.7451.1383 1.0258-.3235 1.0258-.7162s-.0149-1.5312-.0199-2.776c-4.17286.9015-5.05462-1.7609-5.05462-1.7609-.68057-1.7288-1.66418-2.1832-1.66418-2.1832-1.36116-.9237.10184-.9064.10184-.9064 1.5077.1062 2.30005 1.5386 2.30005 1.5386 1.33632 2.2796 3.50971 1.6202 4.36411 1.2349.1341-.9657.5241-1.6226.9538-1.9956-3.33331-.3754-6.83555-1.6547-6.83555-7.3696-.02066-1.4822.53248-2.9155 1.54496-4.0034-.154-.3754-.66816-1.89186.14654-3.95161 0 0 1.25933-.4001 4.12565 1.52876 2.4586-.66852 5.0526-.66852 7.5112 0 2.8639-1.92886 4.1207-1.52876 4.1207-1.52876.8172 2.05481.3031 3.57121.1491 3.95161 1.0157 1.0881 1.57 2.5239 1.5474 4.0083 0 5.7273-3.5097 6.9893-6.848 7.3573.5365.4643 1.0159 1.3707 1.0159 2.7637 0 1.9955-.0174 3.6008-.0174 4.0923 0 .3976.2708.8619 1.0308.7162 3.378-1.1216 6.2446-3.4016 8.087-6.432 1.8424-3.0305 2.5405-6.6138 1.9694-10.1091-.5711-3.49535-2.3742-6.67466-5.0866-8.96934-2.7125-2.29469-6.1575-3.555084-9.7189-3.55576z" fill-rule="evenodd"/><path d="m5.68055 22.04c-.03229.0741-.15152.0963-.24839.0445-.09687-.0519-.1689-.1482-.13412-.2248.03477-.0765.15151-.0963.24838-.0444.09687.0518.17138.1506.13413.2247z"/><path d="m6.28911 22.7142c-.05144.0258-.11029.033-.16647.0204-.05619-.0126-.10621-.0443-.14152-.0895-.09687-.1037-.11676-.247-.04224-.3112s.20865-.0346.30553.0692c.09687.1037.11922.2469.0447.3111z"/><path d="m6.88031 23.5712c-.09191.0642-.2484 0-.33533-.1284-.02404-.023-.04316-.0507-.05622-.0812-.01306-.0306-.0198-.0634-.0198-.0966s.00674-.0661.0198-.0966c.01306-.0306.03218-.0582.05622-.0812.0919-.0618.24839 0 .33533.1259.08693.126.08941.2939 0 .3581z"/><path d="m7.68257 24.401c-.08197.0914-.24838.0667-.385-.0568-.13661-.1234-.16891-.2914-.08694-.3803s.24839-.0642.38997.0568.1689.2914.08197.3803z"/><path d="m8.80772 24.8851c-.03726.1161-.20617.168-.37507.1186s-.28067-.1877-.24838-.3063c.03229-.1185.20368-.1729.37506-.1185.17139.0543.28068.1852.24839.3062z"/><path d="m10.0348 24.9691c0 .121-.1391.2247-.31794.2272-.17883.0025-.32538-.0963-.32538-.2173 0-.1211.13909-.2248.31793-.2273.17883-.0024.32539.0939.32539.2174z"/><path d="m11.1774 24.7789c.0223.121-.1019.247-.2807.2766-.1788.0297-.3353-.042-.3577-.1605-.0223-.1186.1068-.247.2807-.2791s.3353.042.3577.163z"/></g></svg>