<svg fill="none" height="30" viewBox="0 0 30 30" width="30" xmlns="http://www.w3.org/2000/svg"><path d="m27.7793 0h-25.56446c-1.224606 0-2.21484.966797-2.21484 2.16211v25.66989c0 1.1953.990234 2.168 2.21484 2.168h25.56446c1.2246 0 2.2207-.9727 2.2207-2.1621v-25.67579c0-1.195313-.9961-2.16211-2.2207-2.16211zm-18.87891 25.5645h-4.45312v-14.3204h4.45312zm-2.22656-16.27153c-1.42969 0-2.58399-1.1543-2.58399-2.57813 0-1.42382 1.1543-2.57812 2.58399-2.57812 1.42383 0 2.57812 1.1543 2.57812 2.57812 0 1.41797-1.15429 2.57813-2.57812 2.57813zm18.89067 16.27153h-4.4473v-6.961c0-1.6582-.0293-3.7969-2.3145-3.7969-2.3144 0-2.666 1.8106-2.666 3.6797v7.0782h-4.4414v-14.3204h4.2656v1.9571h.0586c.5918-1.125 2.045-2.3145 4.2071-2.3145 4.5058 0 5.3379 2.9649 5.3379 6.8203z" fill="#3f3f46"/></svg>