<svg fill="none" height="26" viewBox="0 0 30 26" width="30" xmlns="http://www.w3.org/2000/svg"><path d="m9.4377 25.1875c11.318 0 17.5102-9.3791 17.5102-17.51012 0-.26367-.0059-.5332-.0176-.79687 1.2045-.87113 2.2441-1.95014 3.0697-3.18633-1.1218.49913-2.3129.8251-3.5326.96679 1.2842-.76978 2.2458-1.97907 2.7064-3.40371-1.2081.71599-2.5293 1.22106-3.907 1.49356-.9283-.98631-2.1556-1.63937-3.4922-1.858201-1.3366-.218832-2.7081.008749-3.9024.647561-1.1943.6388-2.1449 1.65326-2.7049 2.88651-.5599 1.23326-.698 2.61663-.3929 3.93624-2.4463-.12276-4.83948-.75824-7.02442-1.86525-2.18495-1.10701-4.11286-2.66083-5.65877-4.56073-.78571 1.35466-1.02614 2.95766-.67242 4.48322s1.27504 2.85919 2.57672 3.72983c-.97722-.031-1.93304-.29409-2.78848-.76754v.07617c-.00087 1.42157.49059 2.79967 1.39086 3.89987.90026 1.1002 2.15376 1.8548 3.54742 2.1353-.90524.2477-1.85533.2838-2.77676.1055.39327 1.2225 1.15842 2.2919 2.18866 3.0587 1.03025.7668 2.27419 1.1928 3.55822 1.2186-2.1799 1.7123-4.87271 2.6411-7.64473 2.6367-.491591-.0007-.982701-.0309-1.4707-.0902 2.81607 1.8066 6.09191 2.7662 9.4377 2.7644z" fill="#3f3f46"/></svg>